<svg width="17" height="16" viewBox="0 0 17 16" fill="none" xmlns="http://www.w3.org/2000/svg">
<path d="M15.4668 14.4004C15.4666 15.2837 14.7505 15.9998 13.8672 16L1.60059 16C0.717064 16 0.00021677 15.2839 -6.29461e-07 14.4004C-5.90835e-07 13.5167 0.71693 12.7998 1.60059 12.7998L13.8672 12.7998C14.7507 12.8 15.4668 13.5169 15.4668 14.4004ZM12.8027 8C12.8027 8.88352 12.0866 9.5994 11.2031 9.59961L1.60254 9.59961C0.718975 9.5995 0.00293311 8.88359 0.00292934 8C0.00292938 7.11641 0.718973 6.4005 1.60254 6.40039L11.2031 6.40039C12.0866 6.4006 12.8027 7.11647 12.8027 8ZM16.0508 1.5C16.0508 2.32833 15.3579 2.99984 14.5029 3L1.59961 3C0.744459 3 0.0507811 2.32843 0.0507812 1.5C0.0507831 0.671574 0.74446 -6.69061e-07 1.59961 -6.31681e-07L14.5029 -6.76587e-08C15.3579 0.000157178 16.0508 0.671671 16.0508 1.5Z" fill="white"/>
</svg>
