<svg width="1284" height="405" viewBox="0 0 1284 405" fill="none" xmlns="http://www.w3.org/2000/svg">
<path d="M0.200195 19.6621C152.136 12.4253 522.808 -1.54792 768.127 0.379883V0.380859C769.796 0.481175 771.232 0.621344 772.253 0.803711C772.765 0.895194 773.163 0.99598 773.43 1.10254C773.564 1.15602 773.654 1.20672 773.708 1.25098C773.763 1.2962 773.759 1.31533 773.759 1.30566C773.758 1.29442 773.766 1.31285 773.714 1.36523C773.662 1.41751 773.569 1.48333 773.421 1.55859C773.125 1.70859 772.654 1.87555 771.974 2.05762C770.615 2.42117 768.467 2.83441 765.337 3.29883C753.601 5.04017 728.159 7.48879 679.134 10.7686L669.012 11.4355C576.189 17.2632 439.433 26.5475 330.838 35.46C276.541 39.9161 229.281 44.279 198.072 48.0713C182.471 49.9671 170.871 51.722 164.408 53.2754C162.792 53.6638 161.492 54.0407 160.528 54.4062C160.046 54.589 159.644 54.7705 159.327 54.9512C159.013 55.1302 158.769 55.3166 158.617 55.5137C158.461 55.7165 158.392 55.9476 158.47 56.1865C158.543 56.4103 158.732 56.5975 158.983 56.7588C159.489 57.0827 160.367 57.3767 161.608 57.6484V57.6475C162.124 57.7778 163.151 57.8931 164.762 57.9844C166.386 58.0764 168.62 58.1447 171.553 58.1777C177.419 58.2437 186.089 58.1677 198.293 57.8486C222.701 57.2105 261.248 55.6027 319.774 52.2266H319.775C442.488 44.5904 779.005 25.3383 1143.37 9.42285C1169.33 8.31765 1209.32 6.90125 1240 6.24316C1255.33 5.9141 1268.34 5.77511 1276.09 5.95898C1278.03 6.00495 1279.63 6.07099 1280.87 6.15918C1282.11 6.24789 1282.95 6.35769 1283.37 6.48535C1283.42 6.50169 1283.46 6.51782 1283.5 6.53223C1283.47 6.54956 1283.43 6.56948 1283.38 6.59082C1282.96 6.76647 1282.08 6.9761 1280.66 7.21777L1280.66 7.41504H1280.49V7.4873C1279.87 7.62257 1278.56 7.80654 1276.44 8.03906C1274.15 8.2916 1270.92 8.60177 1266.62 8.97754C1258.01 9.72909 1245.13 10.7398 1226.87 12.0596C1190.36 14.6991 1132.38 18.5764 1044.23 24.0957L1044.25 24.2949L1044.26 24.4951C1132.41 18.9757 1190.39 15.0987 1226.9 12.459C1245.16 11.1392 1258.04 10.1288 1266.65 9.37695C1270.95 9.00106 1274.19 8.68954 1276.49 8.43652C1278.5 8.21504 1279.81 8.03666 1280.49 7.89746V404.8H0.200195V19.6621Z" fill="white" stroke="#3665F9" stroke-width="0.4"/>
</svg>
